<svg width="177" height="32" viewBox="0 0 177 32" fill="none" xmlns="http://www.w3.org/2000/svg">
<path d="M33.216 23.864C33.4933 23.864 33.7067 23.992 33.856 24.248C34.0267 24.504 34.112 24.856 34.112 25.304C34.112 26.136 33.9093 26.7973 33.504 27.288C32.48 28.5253 31.4453 29.4853 30.4 30.168C29.3547 30.8293 28.1173 31.16 26.688 31.16C25.1093 31.16 23.8187 30.7013 22.816 29.784C21.8133 28.8453 20.8747 27.3947 20 25.432C19.36 24.024 18.8267 22.9787 18.4 22.296C17.9947 21.592 17.5893 21.1013 17.184 20.824C16.7787 20.5253 16.2667 20.344 15.648 20.28L15.296 22.648C14.848 25.6987 13.9733 27.896 12.672 29.24C11.392 30.584 9.62133 31.256 7.36 31.256C5.888 31.256 4.576 30.904 3.424 30.2C2.29333 29.4747 1.504 28.5573 1.056 27.448C0.906667 27.064 0.832 26.648 0.832 26.2C0.832 25.56 0.981333 25.0053 1.28 24.536C1.57867 24.0667 1.96267 23.832 2.432 23.832C2.70933 23.832 2.944 23.9067 3.136 24.056C3.328 24.184 3.50933 24.4187 3.68 24.76C4.34133 25.9973 4.91733 26.8613 5.408 27.352C5.92 27.8427 6.54933 28.088 7.296 28.088C8.14933 28.088 8.87467 27.704 9.472 26.936C10.0907 26.1467 10.528 24.9413 10.784 23.32L11.232 20.28H10.72C10.2293 20.28 9.84533 20.1413 9.568 19.864C9.29067 19.5867 9.152 19.2027 9.152 18.712C9.152 18.1573 9.29067 17.72 9.568 17.4C9.86667 17.0587 10.2293 16.888 10.656 16.888H11.712C11.8613 15.8427 11.968 15.1173 12.032 14.712L13.024 7.512C12.4693 7.448 11.9467 7.416 11.456 7.416C9.64267 7.416 8.26667 7.736 7.328 8.376C6.38933 8.99467 5.92 9.89067 5.92 11.064C5.92 11.5973 5.97333 12.0347 6.08 12.376C6.208 12.696 6.368 13.0587 6.56 13.464C6.64533 13.6347 6.688 13.8267 6.688 14.04C6.688 14.5093 6.464 14.9253 6.016 15.288C5.58933 15.6293 5.10933 15.8 4.576 15.8C3.89333 15.8 3.392 15.5013 3.072 14.904C2.432 13.7733 2.112 12.5573 2.112 11.256C2.112 9.912 2.47467 8.68533 3.2 7.576C3.94667 6.46667 5.06667 5.58133 6.56 4.92C8.05333 4.23733 9.89867 3.896 12.096 3.896C13.056 3.896 13.9307 3.94933 14.72 4.056C15.5307 4.16267 16.416 4.36533 17.376 4.664C18.4213 4.984 18.944 5.58133 18.944 6.456C18.944 7.62933 18.4427 8.216 17.44 8.216L16.192 16.824C18.688 16.568 20.7147 15.5013 22.272 13.624C23.8507 11.7253 25.1627 9.15467 26.208 5.912C26.4 5.31467 26.72 4.856 27.168 4.536C27.6373 4.216 28.224 4.056 28.928 4.056C29.5253 4.056 29.984 4.19466 30.304 4.472C30.6453 4.728 30.816 5.10133 30.816 5.592C30.816 5.74133 30.7733 5.98667 30.688 6.328C29.6213 9.848 28.096 12.6427 26.112 14.712C24.128 16.7813 21.9627 18.1573 19.616 18.84C20.4267 19.032 21.088 19.32 21.6 19.704C22.1333 20.088 22.5813 20.568 22.944 21.144C23.3067 21.6987 23.7227 22.4773 24.192 23.48C24.8533 24.888 25.472 25.8907 26.048 26.488C26.624 27.064 27.296 27.352 28.064 27.352C28.7467 27.352 29.3973 27.128 30.016 26.68C30.6347 26.2107 31.4133 25.4213 32.352 24.312C32.608 24.0133 32.896 23.864 33.216 23.864ZM34.8158 31.16C33.4931 31.16 32.4371 30.68 31.6478 29.72C30.8584 28.76 30.4638 27.5013 30.4638 25.944C30.4638 24.2373 30.8584 22.6267 31.6478 21.112C32.4371 19.576 33.4824 18.3493 34.7838 17.432C36.1064 16.4933 37.5038 16.024 38.9758 16.024C39.4451 16.024 39.7544 16.12 39.9038 16.312C40.0744 16.4827 40.2131 16.8027 40.3198 17.272C40.7678 17.1867 41.2371 17.144 41.7278 17.144C42.7731 17.144 43.2958 17.5173 43.2958 18.264C43.2958 18.712 43.1358 19.7787 42.8158 21.464C42.3251 23.9173 42.0798 25.624 42.0798 26.584C42.0798 26.904 42.1544 27.16 42.3038 27.352C42.4744 27.544 42.6878 27.64 42.9438 27.64C43.3491 27.64 43.8398 27.384 44.4158 26.872C44.9918 26.3387 45.7704 25.4853 46.7518 24.312C47.0078 24.0133 47.2958 23.864 47.6158 23.864C47.8931 23.864 48.1064 23.992 48.2558 24.248C48.4264 24.504 48.5118 24.856 48.5118 25.304C48.5118 26.1573 48.3091 26.8187 47.9038 27.288C47.0291 28.376 46.1011 29.2933 45.1198 30.04C44.1384 30.7867 43.1891 31.16 42.2718 31.16C41.5678 31.16 40.9171 30.9253 40.3198 30.456C39.7438 29.9653 39.3064 29.304 39.0078 28.472C37.8984 30.264 36.5011 31.16 34.8158 31.16ZM35.9678 27.928C36.4371 27.928 36.8851 27.6507 37.3118 27.096C37.7384 26.5413 38.0478 25.8053 38.2398 24.888L39.4238 19C38.5278 19.0213 37.6958 19.3627 36.9278 20.024C36.1811 20.664 35.5838 21.5173 35.1358 22.584C34.6878 23.6507 34.4638 24.7813 34.4638 25.976C34.4638 26.6373 34.5918 27.128 34.8478 27.448C35.1251 27.768 35.4984 27.928 35.9678 27.928ZM49.847 31.16C48.5243 31.16 47.4683 30.68 46.679 29.72C45.8897 28.76 45.495 27.5013 45.495 25.944C45.495 24.2373 45.8897 22.6267 46.679 21.112C47.4683 19.576 48.5137 18.3493 49.815 17.432C51.1377 16.4933 52.535 16.024 54.007 16.024C54.4763 16.024 54.7857 16.12 54.935 16.312C55.1057 16.4827 55.2443 16.8027 55.351 17.272C55.799 17.1867 56.2683 17.144 56.759 17.144C57.8043 17.144 58.327 17.5173 58.327 18.264C58.327 18.712 58.167 19.7787 57.847 21.464C57.3563 23.9173 57.111 25.624 57.111 26.584C57.111 26.904 57.1857 27.16 57.335 27.352C57.5057 27.544 57.719 27.64 57.975 27.64C58.3803 27.64 58.871 27.384 59.447 26.872C60.023 26.3387 60.8017 25.4853 61.783 24.312C62.039 24.0133 62.327 23.864 62.647 23.864C62.9243 23.864 63.1377 23.992 63.287 24.248C63.4577 24.504 63.543 24.856 63.543 25.304C63.543 26.1573 63.3403 26.8187 62.935 27.288C62.0603 28.376 61.1323 29.2933 60.151 30.04C59.1697 30.7867 58.2203 31.16 57.303 31.16C56.599 31.16 55.9483 30.9253 55.351 30.456C54.775 29.9653 54.3377 29.304 54.039 28.472C52.9297 30.264 51.5323 31.16 49.847 31.16ZM50.999 27.928C51.4683 27.928 51.9163 27.6507 52.343 27.096C52.7697 26.5413 53.079 25.8053 53.271 24.888L54.455 19C53.559 19.0213 52.727 19.3627 51.959 20.024C51.2123 20.664 50.615 21.5173 50.167 22.584C49.719 23.6507 49.495 24.7813 49.495 25.976C49.495 26.6373 49.623 27.128 49.879 27.448C50.1563 27.768 50.5297 27.928 50.999 27.928ZM63.2143 31.16C62.4036 31.16 61.8276 30.7333 61.4863 29.88C61.1663 29.0267 61.0063 27.6613 61.0063 25.784C61.0063 23.0107 61.4009 20.376 62.1903 17.88C62.3823 17.2613 62.6916 16.8133 63.1183 16.536C63.5663 16.2373 64.1849 16.088 64.9743 16.088C65.4009 16.088 65.6996 16.1413 65.8703 16.248C66.0409 16.3547 66.1263 16.5573 66.1263 16.856C66.1263 17.1973 65.9663 17.9653 65.6463 19.16C65.4329 20.0133 65.2623 20.76 65.1343 21.4C65.0063 22.04 64.8996 22.8293 64.8143 23.768C65.5183 21.9333 66.3076 20.44 67.1823 19.288C68.0569 18.136 68.9103 17.3147 69.7423 16.824C70.5956 16.3333 71.3743 16.088 72.0783 16.088C72.7609 16.088 73.2729 16.2693 73.6143 16.632C73.9769 16.9733 74.1583 17.4853 74.1583 18.168C74.1583 18.7227 74.0409 19.768 73.8063 21.304C73.5929 22.6053 73.4223 23.8427 73.2943 25.016C73.1663 26.168 73.1023 27.4587 73.1023 28.888C73.1023 29.6987 72.9316 30.2853 72.5903 30.648C72.2703 30.9893 71.7369 31.16 70.9903 31.16C70.2863 31.16 69.7743 30.9787 69.4543 30.616C69.1343 30.2533 68.9743 29.7093 68.9743 28.984C68.9743 28.1307 69.1236 26.7227 69.4223 24.76C69.6783 23.0533 69.8063 21.9653 69.8063 21.496C69.8063 21.1547 69.6889 20.984 69.4543 20.984C69.1769 20.984 68.7823 21.3467 68.2703 22.072C67.7796 22.776 67.2676 23.7147 66.7343 24.888C66.2223 26.0613 65.8063 27.2987 65.4863 28.6C65.2516 29.6027 64.9743 30.2853 64.6543 30.648C64.3556 30.9893 63.8756 31.16 63.2143 31.16ZM97.871 31.16C95.3323 31.16 93.1243 30.7013 91.247 29.784C89.3697 28.8453 87.9297 27.5227 86.927 25.816C85.9243 24.1093 85.423 22.1253 85.423 19.864C85.423 16.728 86.0097 13.944 87.183 11.512C88.3777 9.08 89.9883 7.20267 92.015 5.88C94.0417 4.536 96.2923 3.864 98.767 3.864C101.071 3.864 102.82 4.46133 104.015 5.656C105.21 6.82933 105.807 8.38667 105.807 10.328C105.807 11.6293 105.572 12.6747 105.103 13.464C104.655 14.2533 104.004 14.648 103.151 14.648C102.554 14.648 102.084 14.5093 101.743 14.232C101.402 13.9547 101.231 13.5493 101.231 13.016C101.231 12.824 101.274 12.472 101.359 11.96C101.487 11.32 101.551 10.808 101.551 10.424C101.551 8.48267 100.516 7.512 98.447 7.512C97.039 7.512 95.695 7.97067 94.415 8.888C93.135 9.80533 92.1003 11.16 91.311 12.952C90.5217 14.7227 90.127 16.8347 90.127 19.288C90.127 21.848 90.8417 23.832 92.271 25.24C93.7003 26.6267 95.8123 27.32 98.607 27.32C99.9937 27.32 101.391 27.1493 102.799 26.808C104.228 26.4453 105.807 25.9013 107.535 25.176C107.855 25.048 108.122 24.984 108.335 24.984C108.676 24.984 108.932 25.112 109.103 25.368C109.274 25.624 109.359 25.9547 109.359 26.36C109.359 27.6613 108.655 28.6213 107.247 29.24C105.732 29.9013 104.154 30.392 102.511 30.712C100.89 31.0107 99.343 31.16 97.871 31.16ZM124.609 23.864C124.886 23.864 125.099 23.992 125.249 24.248C125.419 24.504 125.505 24.856 125.505 25.304C125.505 26.1573 125.302 26.8187 124.897 27.288C123.915 28.4187 122.902 29.3467 121.857 30.072C120.833 30.7973 119.659 31.16 118.337 31.16C117.249 31.16 116.427 30.8507 115.873 30.232C115.318 29.592 115.041 28.6747 115.041 27.48C115.041 26.8827 115.19 25.816 115.489 24.28C115.766 22.936 115.905 22.008 115.905 21.496C115.905 21.1547 115.787 20.984 115.553 20.984C115.275 20.984 114.881 21.3467 114.369 22.072C113.857 22.776 113.345 23.7147 112.833 24.888C112.321 26.0613 111.905 27.2987 111.585 28.6C111.179 30.3067 110.177 31.16 108.577 31.16C107.937 31.16 107.51 30.936 107.297 30.488C107.105 30.0187 107.009 29.1867 107.009 27.992C107.009 27.3093 107.019 26.7653 107.041 26.36L107.073 23.8C107.073 20.5147 107.403 17.0907 108.065 13.528C108.747 9.96533 109.739 6.97867 111.041 4.568C112.363 2.136 113.942 0.919998 115.777 0.919998C116.758 0.919998 117.547 1.34667 118.145 2.2C118.763 3.032 119.073 4.12 119.073 5.464C119.073 7.61867 118.443 9.85867 117.185 12.184C115.926 14.488 113.878 17.1867 111.041 20.28C110.977 21.3893 110.945 22.5307 110.945 23.704C111.649 21.8907 112.427 20.4187 113.281 19.288C114.155 18.136 115.009 17.3147 115.841 16.824C116.694 16.3333 117.473 16.088 118.177 16.088C119.563 16.088 120.257 16.7813 120.257 18.168C120.257 19 120.022 20.504 119.553 22.68C119.147 24.536 118.945 25.7627 118.945 26.36C118.945 27.2133 119.254 27.64 119.873 27.64C120.299 27.64 120.801 27.384 121.377 26.872C121.974 26.3387 122.763 25.4853 123.745 24.312C124.001 24.0133 124.289 23.864 124.609 23.864ZM115.105 4.088C114.721 4.088 114.294 4.64267 113.825 5.752C113.355 6.84 112.897 8.32267 112.449 10.2C112.022 12.056 111.67 14.0827 111.393 16.28C112.715 14.7227 113.803 13.0267 114.657 11.192C115.531 9.35733 115.969 7.69333 115.969 6.2C115.969 5.51733 115.894 4.99467 115.745 4.632C115.595 4.26933 115.382 4.088 115.105 4.088ZM127.103 13.976C126.207 13.976 125.535 13.7733 125.087 13.368C124.639 12.9413 124.415 12.3547 124.415 11.608C124.415 10.8613 124.703 10.2427 125.279 9.752C125.876 9.24 126.612 8.984 127.487 8.984C128.276 8.984 128.916 9.176 129.407 9.56C129.898 9.944 130.143 10.488 130.143 11.192C130.143 12.0453 129.866 12.728 129.311 13.24C128.756 13.7307 128.02 13.976 127.103 13.976ZM126.847 31.16C125.46 31.16 124.447 30.6693 123.807 29.688C123.188 28.7067 122.879 27.4053 122.879 25.784C122.879 24.824 122.996 23.5973 123.231 22.104C123.487 20.5893 123.807 19.1813 124.191 17.88C124.383 17.1973 124.639 16.728 124.959 16.472C125.279 16.216 125.791 16.088 126.495 16.088C127.583 16.088 128.127 16.4507 128.127 17.176C128.127 17.7093 127.924 18.9467 127.519 20.888C127.007 23.2347 126.751 24.824 126.751 25.656C126.751 26.296 126.836 26.7867 127.007 27.128C127.178 27.4693 127.466 27.64 127.871 27.64C128.255 27.64 128.735 27.3733 129.311 26.84C129.887 26.3067 130.655 25.464 131.615 24.312C131.871 24.0133 132.159 23.864 132.479 23.864C132.756 23.864 132.97 23.992 133.119 24.248C133.29 24.504 133.375 24.856 133.375 25.304C133.375 26.1573 133.172 26.8187 132.767 27.288C130.655 29.8693 128.682 31.16 126.847 31.16ZM133.058 31.16C132.247 31.16 131.671 30.7333 131.33 29.88C131.01 29.0267 130.85 27.6613 130.85 25.784C130.85 23.0107 131.245 20.376 132.034 17.88C132.226 17.2613 132.535 16.8133 132.962 16.536C133.41 16.2373 134.029 16.088 134.818 16.088C135.245 16.088 135.543 16.1413 135.714 16.248C135.885 16.3547 135.97 16.5573 135.97 16.856C135.97 17.1973 135.81 17.9653 135.49 19.16C135.277 20.0133 135.106 20.76 134.978 21.4C134.85 22.04 134.743 22.8293 134.658 23.768C135.362 21.9333 136.151 20.44 137.026 19.288C137.901 18.136 138.754 17.3147 139.586 16.824C140.439 16.3333 141.218 16.088 141.922 16.088C143.309 16.088 144.002 16.7813 144.002 18.168C144.002 19 143.767 20.504 143.298 22.68C142.893 24.536 142.69 25.7627 142.69 26.36C142.69 27.2133 142.999 27.64 143.618 27.64C144.045 27.64 144.546 27.384 145.122 26.872C145.719 26.3387 146.509 25.4853 147.49 24.312C147.746 24.0133 148.034 23.864 148.354 23.864C148.631 23.864 148.845 23.992 148.994 24.248C149.165 24.504 149.25 24.856 149.25 25.304C149.25 26.1573 149.047 26.8187 148.642 27.288C147.725 28.4187 146.733 29.3467 145.666 30.072C144.621 30.7973 143.426 31.16 142.082 31.16C140.994 31.16 140.173 30.8507 139.618 30.232C139.063 29.592 138.786 28.6747 138.786 27.48C138.786 26.8827 138.935 25.816 139.234 24.28C139.511 22.936 139.65 22.008 139.65 21.496C139.65 21.1547 139.533 20.984 139.298 20.984C139.021 20.984 138.626 21.3467 138.114 22.072C137.623 22.776 137.111 23.7147 136.578 24.888C136.066 26.0613 135.65 27.2987 135.33 28.6C135.095 29.6027 134.818 30.2853 134.498 30.648C134.199 30.9893 133.719 31.16 133.058 31.16ZM150.597 31.16C149.274 31.16 148.218 30.68 147.429 29.72C146.64 28.76 146.245 27.5013 146.245 25.944C146.245 24.2373 146.64 22.6267 147.429 21.112C148.218 19.576 149.264 18.3493 150.565 17.432C151.888 16.4933 153.285 16.024 154.757 16.024C155.226 16.024 155.536 16.12 155.685 16.312C155.856 16.4827 155.994 16.8027 156.101 17.272C156.549 17.1867 157.018 17.144 157.509 17.144C158.554 17.144 159.077 17.5173 159.077 18.264C159.077 18.712 158.917 19.7787 158.597 21.464C158.106 23.9173 157.861 25.624 157.861 26.584C157.861 26.904 157.936 27.16 158.085 27.352C158.256 27.544 158.469 27.64 158.725 27.64C159.13 27.64 159.621 27.384 160.197 26.872C160.773 26.3387 161.552 25.4853 162.533 24.312C162.789 24.0133 163.077 23.864 163.397 23.864C163.674 23.864 163.888 23.992 164.037 24.248C164.208 24.504 164.293 24.856 164.293 25.304C164.293 26.1573 164.09 26.8187 163.685 27.288C162.81 28.376 161.882 29.2933 160.901 30.04C159.92 30.7867 158.97 31.16 158.053 31.16C157.349 31.16 156.698 30.9253 156.101 30.456C155.525 29.9653 155.088 29.304 154.789 28.472C153.68 30.264 152.282 31.16 150.597 31.16ZM151.749 27.928C152.218 27.928 152.666 27.6507 153.093 27.096C153.52 26.5413 153.829 25.8053 154.021 24.888L155.205 19C154.309 19.0213 153.477 19.3627 152.709 20.024C151.962 20.664 151.365 21.5173 150.917 22.584C150.469 23.6507 150.245 24.7813 150.245 25.976C150.245 26.6373 150.373 27.128 150.629 27.448C150.906 27.768 151.28 27.928 151.749 27.928ZM174.62 20.472C175.09 20.472 175.484 20.6427 175.804 20.984C176.146 21.304 176.316 21.7093 176.316 22.2C176.316 22.4773 176.252 22.776 176.124 23.096C175.783 23.8853 175.303 24.5467 174.684 25.08C174.066 25.6133 173.383 25.88 172.636 25.88C172.039 25.88 171.527 25.6667 171.1 25.24C170.695 24.8133 170.492 24.2373 170.492 23.512C170.492 23.1067 170.514 22.6693 170.556 22.2C170.599 21.8587 170.62 21.624 170.62 21.496C170.62 21.3253 170.578 21.1973 170.492 21.112C170.428 21.0267 170.343 20.984 170.236 20.984C169.938 20.984 169.532 21.3467 169.02 22.072C168.508 22.776 167.996 23.7147 167.484 24.888C166.972 26.0613 166.556 27.2987 166.236 28.6C166.002 29.624 165.735 30.3067 165.436 30.648C165.138 30.9893 164.647 31.16 163.964 31.16C163.154 31.16 162.578 30.7333 162.236 29.88C161.916 29.0267 161.756 27.6613 161.756 25.784C161.756 23.0107 162.151 20.376 162.94 17.88C163.132 17.2613 163.442 16.8133 163.868 16.536C164.316 16.2373 164.935 16.088 165.724 16.088C166.151 16.088 166.45 16.1413 166.62 16.248C166.791 16.3547 166.876 16.5573 166.876 16.856C166.876 17.1973 166.716 17.9653 166.396 19.16C166.183 20.0133 166.012 20.76 165.884 21.4C165.756 22.04 165.65 22.8293 165.564 23.768C166.268 21.9333 167.058 20.44 167.932 19.288C168.807 18.136 169.66 17.3147 170.492 16.824C171.324 16.3333 172.082 16.088 172.764 16.088C173.383 16.088 173.852 16.2693 174.172 16.632C174.514 16.9733 174.684 17.4853 174.684 18.168C174.684 18.5733 174.567 19.3413 174.332 20.472H174.62Z" fill="url(#paint0_linear_1_26)"/>
<defs>
<linearGradient id="paint0_linear_1_26" x1="0" y1="17" x2="176" y2="17" gradientUnits="userSpaceOnUse">
<stop stop-color="#9CA0CD"/>
<stop offset="1" stop-color="#5B65C7"/>
</linearGradient>
</defs>
</svg>
