<svg width="48" height="49" viewBox="0 0 48 49" fill="none" xmlns="http://www.w3.org/2000/svg">
<path d="M34.386 19.61C31.858 8.45 25.882 4.782 25.24 3.38C24.68 2.592 24.18 1.472 23.77 0.5C23.698 1.49 23.66 1.87 22.724 2.868C21.278 4 13.848 10.232 13.244 22.908C12.68 34.732 21.784 41.778 23.02 42.676L23.16 42.776C23.4174 44.6795 23.6374 46.5879 23.82 48.5H24.782C25.0098 46.4363 25.3504 44.3865 25.802 42.36C26.636 41.768 27.01 41.434 27.502 40.974C29.8319 38.8186 31.6836 36.1982 32.9372 33.2823C34.1909 30.3663 34.8187 27.2198 34.78 24.046C34.8 22.418 34.574 20.722 34.386 19.61ZM23.714 36C23.714 36 23.714 19.418 24.264 19.42C24.69 19.42 25.244 40.81 25.244 40.81C24.482 40.72 23.714 37.29 23.714 36Z" fill="#9CA0CD"/>
</svg>
