<svg width="44" height="39" viewBox="0 0 44 39" fill="none" xmlns="http://www.w3.org/2000/svg">
<path d="M10.714 13.5C5.44 14.86 2 17.19 2 19.85C2 24.064 10.81 27.5 21.7 27.5C23.18 27.5 24.22 27.422 25.6 27.306" stroke="#9CA0CD" stroke-width="3" stroke-linecap="round" stroke-linejoin="round"/>
<path d="M17.674 27.3C16.848 26.108 16.062 25.034 15.314 23.7C9.81201 13.9 8.33801 4.15999 12.054 1.95399C14.354 0.559987 18.148 2.45999 22.002 6.46199" stroke="#9CA0CD" stroke-width="3" stroke-linecap="round" stroke-linejoin="round"/>
<path d="M10.858 26.274C9.45401 31.65 9.73801 35.706 11.978 37.064C15.544 39.224 22.752 33.148 28.064 23.456C28.784 22.116 29.43 20.798 30 19.5" stroke="#9CA0CD" stroke-width="3" stroke-linecap="round" stroke-linejoin="round"/>
<path d="M22 32.54C25.856 36.54 29.634 38.44 31.956 37.046C35.656 34.842 34.198 25.102 28.69 15.3C27.922 13.946 27.136 12.892 26.33 11.7" stroke="#9CA0CD" stroke-width="3" stroke-linecap="round" stroke-linejoin="round"/>
<path d="M33.32 25.5C38.544 24.126 42 21.8 42 19.148C42 14.928 33.184 11.5 22.31 11.5C20.816 11.5 19.778 11.558 18.4 11.674" stroke="#9CA0CD" stroke-width="3" stroke-linecap="round" stroke-linejoin="round"/>
<path d="M14 19.5C14.57 18.18 15.214 16.884 15.936 15.544C21.23 5.85599 28.442 -0.236009 32.028 1.94199C34.248 3.29999 34.552 7.35399 33.148 12.728" stroke="#9CA0CD" stroke-width="3" stroke-linecap="round" stroke-linejoin="round"/>
<path d="M22.52 19.53H22.5C22.48 19.79 22.26 20.01 21.98 20.01C21.8461 20.0034 21.7198 19.9459 21.6268 19.8492C21.5339 19.7525 21.4814 19.6241 21.48 19.49C21.48 19.21 21.7 18.99 21.96 18.99H21.94C22.2 18.97 22.44 19.21 22.44 19.47" stroke="#9CA0CD" stroke-width="3" stroke-linecap="round" stroke-linejoin="round"/>
</svg>
