<svg width="48" height="43" viewBox="0 0 48 43" fill="none" xmlns="http://www.w3.org/2000/svg">
<path d="M39.2063 14.1102C38.7 13.9415 38.1938 13.7821 37.6875 13.6321C37.7719 13.2852 37.8469 12.9383 37.9219 12.5915C39.075 7.00396 38.3156 2.51333 35.7562 1.03208C33.2906 -0.383544 29.2687 1.08833 25.2 4.63208C24.7969 4.97896 24.4031 5.34458 24.0281 5.71021C23.775 5.46646 23.5125 5.22271 23.25 4.98833C18.9844 1.20083 14.7094 -0.392919 12.15 1.09771C9.69375 2.52271 8.9625 6.75083 9.99375 12.0383C10.0969 12.5633 10.2094 13.079 10.3406 13.604C9.74063 13.7727 9.15 13.9602 8.59687 14.1571C3.59062 15.8915 0 18.629 0 21.4602C0 24.3852 3.825 27.3196 9.02813 29.1008C9.45 29.2415 9.87188 29.3821 10.3031 29.504C10.1625 30.0665 10.0406 30.6196 9.92813 31.1915C8.94375 36.3946 9.7125 40.5196 12.1688 41.9352C14.7 43.3977 18.9562 41.8977 23.1 38.2696C23.4281 37.979 23.7562 37.679 24.0844 37.3602C24.4969 37.7633 24.9281 38.1477 25.3594 38.5227C29.3719 41.9727 33.3375 43.3696 35.7844 41.954C38.3156 40.4915 39.1406 36.0571 38.0719 30.6571C37.9875 30.2446 37.8938 29.8227 37.7906 29.3915C38.0906 29.3071 38.3813 29.2133 38.6719 29.1196C44.0813 27.329 48 24.4321 48 21.4602C48 18.6196 44.3063 15.8633 39.2063 14.1102ZM26.5219 6.15083C30.0094 3.11333 33.2625 1.92271 34.7438 2.77583C36.3281 3.68521 36.9375 7.36021 35.9437 12.1883C35.8781 12.5071 35.8125 12.8165 35.7281 13.1258C33.6469 12.6571 31.5375 12.3196 29.4187 12.1321C28.2 10.3883 26.8688 8.71958 25.425 7.15396C25.7906 6.80708 26.1469 6.47896 26.5219 6.15083ZM15.675 26.3258C16.1531 27.1415 16.6406 27.9571 17.1562 28.754C15.6937 28.5946 14.2406 28.3602 12.8063 28.0508C13.2188 26.7008 13.7344 25.304 14.3344 23.879C14.7656 24.704 15.2062 25.5196 15.675 26.3258ZM12.8344 15.0477C14.1844 14.7477 15.6188 14.504 17.1094 14.3165C16.6125 15.0946 16.125 15.8915 15.6656 16.6977C15.2063 17.4946 14.7562 18.3102 14.3344 19.1352C13.7437 17.7383 13.2469 16.3696 12.8344 15.0477ZM15.4031 21.5071C16.0219 20.2133 16.6969 18.9477 17.4094 17.7008C18.1219 16.454 18.8906 15.2446 19.6969 14.054C21.1031 13.9508 22.5375 13.8946 24 13.8946C25.4625 13.8946 26.9062 13.9508 28.3031 14.054C29.1 15.2352 29.8594 16.4446 30.5813 17.6821C31.3031 18.9196 31.9781 20.1852 32.6156 21.4696C31.9875 22.7633 31.3125 24.0383 30.5906 25.2946C29.8781 26.5415 29.1188 27.7508 28.3219 28.9508C26.925 29.054 25.4719 29.1008 24 29.1008C22.5281 29.1008 21.1031 29.054 19.725 28.9696C18.9094 27.779 18.1406 26.5602 17.4188 25.3133C16.6969 24.0665 16.0313 22.8008 15.4031 21.5071ZM32.3344 26.3071C32.8125 25.4821 33.2625 24.6477 33.7031 23.804C34.3031 25.1633 34.8281 26.5415 35.2875 27.9571C33.8344 28.2852 32.3625 28.5383 30.8812 28.7071C31.3875 27.9196 31.8656 27.1133 32.3344 26.3071ZM33.6844 19.1352C33.2437 18.3102 32.7937 17.4852 32.325 16.679C31.8656 15.8821 31.3875 15.0946 30.8906 14.3165C32.4 14.504 33.8437 14.7571 35.1937 15.0665C34.7625 16.454 34.2562 17.804 33.6844 19.1352ZM24.0188 8.58833C25.0031 9.65708 25.9312 10.7821 26.7937 11.9446C24.9375 11.8602 23.0719 11.8602 21.2156 11.9446C22.1344 10.7352 23.0813 9.61021 24.0188 8.58833ZM13.1437 2.84146C14.7187 1.92271 18.2156 3.23521 21.9 6.49771C22.1344 6.70396 22.3687 6.92896 22.6125 7.15396C21.1594 8.71958 19.8188 10.3883 18.5906 12.1321C16.4719 12.3196 14.3719 12.6477 12.2906 13.1071C12.1688 12.629 12.0656 12.1415 11.9625 11.654C11.0812 7.11646 11.6625 3.69458 13.1437 2.84146ZM10.8469 27.554C10.4531 27.4415 10.0688 27.3196 9.68438 27.1883C7.6875 26.5602 5.41875 25.5665 3.77812 24.2633C2.83125 23.6071 2.19375 22.5946 2.01562 21.4602C2.01562 19.7446 4.97812 17.5508 9.25312 16.0602C9.7875 15.8727 10.3312 15.704 10.875 15.5446C11.5125 17.579 12.2812 19.5758 13.1719 21.5071C12.2719 23.4665 11.4937 25.4915 10.8469 27.554ZM21.7781 36.7415C20.2313 38.1571 18.4406 39.2821 16.4906 40.0508C15.45 40.5477 14.25 40.5946 13.1813 40.1727C11.6906 39.3102 11.0719 36.0008 11.9156 31.5477C12.0187 31.0227 12.1313 30.4977 12.2625 29.9821C14.3625 30.4321 16.4812 30.7415 18.6281 30.9008C19.8656 32.654 21.225 34.3321 22.6781 35.9071C22.3781 36.1977 22.0781 36.479 21.7781 36.7415ZM24.075 34.4633C23.1187 33.4321 22.1625 32.2883 21.2344 31.0602C22.1344 31.0977 23.0625 31.1165 24 31.1165C24.9656 31.1165 25.9125 31.0977 26.85 31.0508C25.9875 32.2415 25.0594 33.3758 24.075 34.4633ZM36.3281 37.2758C36.2438 38.4196 35.6813 39.4883 34.7812 40.2102C33.2906 41.0727 30.1125 39.9477 26.6813 37.004C26.2875 36.6665 25.8937 36.3008 25.4906 35.9258C26.925 34.3415 28.2469 32.6633 29.4469 30.9008C31.5938 30.7227 33.7312 30.3946 35.8406 29.9165C35.9344 30.3008 36.0187 30.6852 36.0938 31.0602C36.5531 33.0852 36.6281 35.1946 36.3281 37.2758ZM38.0344 27.1977C37.7719 27.2821 37.5094 27.3665 37.2375 27.4415C36.5813 25.3977 35.775 23.4008 34.8469 21.4602C35.7469 19.5477 36.5063 17.579 37.1438 15.5633C37.6313 15.704 38.1 15.854 38.55 16.004C42.9188 17.504 45.9844 19.7352 45.9844 21.4415C45.9844 23.279 42.7125 25.6508 38.0344 27.1977ZM24 25.7915C26.3719 25.7915 28.2937 23.8696 28.2937 21.4977C28.2937 19.1258 26.3719 17.204 24 17.204C21.6281 17.204 19.7062 19.1258 19.7062 21.4977C19.7062 23.8696 21.6281 25.7915 24 25.7915Z" fill="#9CA0CD"/>
</svg>
